<svg xmlns="http://www.w3.org/2000/svg" xmlns:xlink="http://www.w3.org/1999/xlink" version="1.1" x="0px" y="0px" viewBox="0 0 100 125" style="enable-background:new 0 0 100 100;" xml:space="preserve"><style type="text/css">
	.st0{enable-background:new    ;}
</style><path d="M88.3,11.7C81.6,5.1,71.1,5,70.6,5c-1,0-1.9,0.4-2.7,1.1L13.6,60.4c-0.2,0.2-0.5,0.5-0.6,0.8c-0.2,0.3-0.3,0.6-0.4,1  L5.1,90.3c-0.3,1.3,0,2.7,1,3.6C6.8,94.6,7.8,95,8.8,95c0.3,0,0.6,0,1-0.1l28.1-7.5c0.3-0.1,0.6-0.2,0.9-0.4  c0.1-0.1,0.2-0.1,0.3-0.2c0,0,0,0,0,0c0.2-0.1,0.4-0.3,0.6-0.5L93.9,32c0.7-0.7,1.1-1.7,1.1-2.7C95,28.9,94.9,18.4,88.3,11.7z   M14,86L18.8,68c2.3,1,5.4,2.7,7.9,5.2c2.5,2.5,4.2,5.6,5.2,7.9L14,86z M38.3,77c-0.4-0.9-1-1.9-1.6-2.9L78.9,32  c1.5-1.5,1.5-3.8,0-5.3c-1.5-1.5-3.8-1.5-5.3,0L32.2,68.1C32.1,68.1,32.1,68,32,68c-2.9-2.9-6.3-4.9-9-6.3l49.1-49.1  c2.5,0.3,7.6,1.2,10.9,4.4c3.3,3.3,4.2,8.4,4.4,10.9L38.3,77z"/><text x="0" y="115" fill="#000000" font-size="5px" font-weight="bold" font-family="'Helvetica Neue', Helvetica, Arial-Unicode, Arial, Sans-serif">Created by Ferma</text><text x="0" y="120" fill="#000000" font-size="5px" font-weight="bold" font-family="'Helvetica Neue', Helvetica, Arial-Unicode, Arial, Sans-serif">from the Noun Project</text></svg>